<svg xmlns="http://www.w3.org/2000/svg" viewBox="0 0 960 540" role="img" aria-labelledby="title desc">
  <title id="title">Atmungssystem</title>
  <desc id="desc">Deutsch beschriftetes menschliches Atmungssystem.</desc>
  <rect width="960" height="540" fill="#f7fbff"/>
  <style>
    text{font-family:Arial,Helvetica,sans-serif;fill:#1e2b3a}.h{font-size:34px;font-weight:800}.l{font-size:21px;font-weight:700}.label{fill:#fff;stroke:#8ca6c7;stroke-width:3}.line{stroke:#64748b;stroke-width:4;fill:none}.air{stroke:#3b82f6;stroke-width:13;stroke-linecap:round;fill:none}
  </style>
  <text x="480" y="55" text-anchor="middle" class="h">Atmungssystem des Menschen</text>
  <g transform="translate(480 110)">
    <path class="air" d="M0 20 V142 M0 142 C-72 182 -104 236 -100 326 M0 142 C72 182 104 236 100 326"/>
    <path d="M-18 22 C-58 12 -66 -20 -28 -42 C2 -62 50 -50 56 -16 C58 8 26 20 -18 22Z" fill="#dbeafe" stroke="#3b82f6" stroke-width="5"/>
    <path d="M-24 142 C-154 164 -230 270 -180 392 C-88 420 -28 348 -24 142Z" fill="#bde0fe" stroke="#2563eb" stroke-width="6"/>
    <path d="M24 142 C154 164 230 270 180 392 C88 420 28 348 24 142Z" fill="#bde0fe" stroke="#2563eb" stroke-width="6"/>
    <path d="M-190 398 C-86 360 86 360 190 398" stroke="#ef4444" stroke-width="13" stroke-linecap="round" fill="none"/>
  </g>
  <g>
    <rect class="label" x="100" y="108" width="150" height="46" rx="12"/><text x="175" y="139" class="l" text-anchor="middle">Nase</text><path class="line" d="M250 131 C332 126 400 112 454 104"/>
    <rect class="label" x="672" y="172" width="180" height="46" rx="12"/><text x="762" y="203" class="l" text-anchor="middle">Luftröhre</text><path class="line" d="M672 195 C600 196 532 204 484 234"/>
    <rect class="label" x="92" y="328" width="150" height="46" rx="12"/><text x="167" y="359" class="l" text-anchor="middle">Lunge</text><path class="line" d="M242 351 C318 350 364 332 402 306"/>
    <rect class="label" x="658" y="410" width="180" height="46" rx="12"/><text x="748" y="441" class="l" text-anchor="middle">Zwerchfell</text><path class="line" d="M658 433 C586 430 532 424 480 408"/>
  </g>
</svg>
