<svg xmlns="http://www.w3.org/2000/svg" viewBox="0 0 960 540" role="img" aria-labelledby="title desc">
  <title id="title">Aufbau einer Blüte</title>
  <desc id="desc">Deutsch beschriftete Blütenteile.</desc>
  <rect width="960" height="540" fill="#fff8f1"/>
  <style>
    text{font-family:Arial,Helvetica,sans-serif;fill:#332317}.h{font-size:34px;font-weight:800}.l{font-size:22px;font-weight:700}.s{font-size:18px}.line{stroke:#68452d;stroke-width:4;fill:none}.label{fill:#fff;stroke:#d58a4b;stroke-width:3}
  </style>
  <text x="480" y="55" text-anchor="middle" class="h">Aufbau einer Blüte</text>
  <g transform="translate(480 280)">
    <ellipse cx="-90" cy="-70" rx="78" ry="42" fill="#f8a6b9" transform="rotate(-38 -90 -70)"/>
    <ellipse cx="90" cy="-70" rx="78" ry="42" fill="#f8a6b9" transform="rotate(38 90 -70)"/>
    <ellipse cx="-74" cy="22" rx="82" ry="45" fill="#f68aa5" transform="rotate(35 -74 22)"/>
    <ellipse cx="74" cy="22" rx="82" ry="45" fill="#f68aa5" transform="rotate(-35 74 22)"/>
    <circle cx="0" cy="-10" r="58" fill="#ffd166"/>
    <path d="M0 -110 C15 -68 12 -30 0 8 C-12 -30 -15 -68 0 -110Z" fill="#7e4a2c"/>
    <circle cx="0" cy="-118" r="15" fill="#d97706"/>
    <g stroke="#7e4a2c" stroke-width="8" stroke-linecap="round">
      <line x1="-70" y1="-22" x2="-122" y2="-88"/><line x1="70" y1="-22" x2="122" y2="-88"/>
      <line x1="-88" y1="32" x2="-142" y2="82"/><line x1="88" y1="32" x2="142" y2="82"/>
    </g>
    <g fill="#c8792b"><circle cx="-126" cy="-94" r="14"/><circle cx="126" cy="-94" r="14"/><circle cx="-146" cy="86" r="14"/><circle cx="146" cy="86" r="14"/></g>
    <path d="M-108 95 C-40 140 40 140 108 95 C56 166 -56 166 -108 95Z" fill="#55a65a"/>
    <path d="M0 106 V210" stroke="#4f8a4f" stroke-width="16" stroke-linecap="round"/>
  </g>
  <g>
    <rect class="label" x="64" y="128" width="210" height="48" rx="14"/><text x="169" y="159" text-anchor="middle" class="l">Blütenblatt</text><path class="line" d="M274 153 C340 150 370 174 410 210"/>
    <rect class="label" x="642" y="128" width="220" height="48" rx="14"/><text x="752" y="159" text-anchor="middle" class="l">Staubblatt</text><path class="line" d="M642 153 C590 152 566 188 602 225"/>
    <rect class="label" x="88" y="356" width="210" height="48" rx="14"/><text x="193" y="387" text-anchor="middle" class="l">Kelchblatt</text><path class="line" d="M298 381 C370 376 385 356 398 334"/>
    <rect class="label" x="650" y="356" width="220" height="48" rx="14"/><text x="760" y="387" text-anchor="middle" class="l">Stempel</text><path class="line" d="M650 381 C570 358 532 300 490 168"/>
  </g>
</svg>
