<svg xmlns="http://www.w3.org/2000/svg" viewBox="0 0 960 540" role="img" aria-labelledby="title desc">
  <title id="title">Gelenk</title>
  <desc id="desc">Deutsch beschriftetes Schema eines beweglichen Gelenks.</desc>
  <rect width="960" height="540" fill="#f5f8fb"/>
  <style>
    text{font-family:Arial,Helvetica,sans-serif;fill:#1f2937}.h{font-size:34px;font-weight:800}.l{font-size:22px;font-weight:700}.line{stroke:#667085;stroke-width:4;fill:none}.label{fill:#fff;stroke:#91a4b7;stroke-width:3}.bone{fill:#f7dfc4;stroke:#b8875e;stroke-width:5}.cart{fill:#88d1c5;stroke:#308176;stroke-width:4}
  </style>
  <text x="480" y="58" text-anchor="middle" class="h">Knochen, Knorpel und Gelenk</text>
  <g transform="translate(480 284)">
    <path class="bone" d="M-250 -48 C-160 -76 -92 -58 -50 -18 C-83 12 -150 34 -250 18Z"/>
    <path class="bone" d="M250 48 C160 76 92 58 50 18 C83 -12 150 -34 250 -18Z"/>
    <path class="cart" d="M-72 -28 C-36 -8 -24 18 -48 42 C-78 28 -98 5 -92 -20Z"/>
    <path class="cart" d="M72 28 C36 8 24 -18 48 -42 C78 -28 98 -5 92 20Z"/>
    <ellipse cx="0" cy="0" rx="88" ry="58" fill="#dff6ff" stroke="#69a7c2" stroke-width="5" opacity=".82"/>
    <path d="M-116 -72 C-55 -122 56 -122 116 -72 C140 -22 140 22 116 72 C55 122 -55 122 -116 72 C-140 22 -140 -22 -116 -72Z" fill="none" stroke="#6b7280" stroke-width="8"/>
  </g>
  <g>
    <rect class="label" x="84" y="130" width="170" height="48" rx="14"/><text class="l" x="169" y="162" text-anchor="middle">Knochen</text><path class="line" d="M254 154 C330 188 358 214 416 242"/>
    <rect class="label" x="690" y="130" width="180" height="48" rx="14"/><text class="l" x="780" y="162" text-anchor="middle">Knorpel</text><path class="line" d="M690 154 C616 176 565 218 535 253"/>
    <rect class="label" x="92" y="388" width="210" height="48" rx="14"/><text class="l" x="197" y="420" text-anchor="middle">Gelenkkapsel</text><path class="line" d="M302 412 C362 388 388 350 390 306"/>
    <rect class="label" x="638" y="388" width="230" height="48" rx="14"/><text class="l" x="753" y="420" text-anchor="middle">Gelenkflüssigkeit</text><path class="line" d="M638 412 C585 386 540 346 500 294"/>
  </g>
</svg>
