<svg xmlns="http://www.w3.org/2000/svg" viewBox="0 0 960 540" role="img" aria-labelledby="title desc">
  <title id="title">Verdauungssystem</title>
  <desc id="desc">Deutsch beschrifteter Weg der Nahrung durch den Körper.</desc>
  <rect width="960" height="540" fill="#f8fafc"/>
  <style>
    text{font-family:Arial,Helvetica,sans-serif;fill:#243142}.h{font-size:34px;font-weight:800}.l{font-size:21px;font-weight:700}.s{font-size:17px}.org{fill:#ffd6a5;stroke:#b86938;stroke-width:5}.tube{stroke:#d97706;stroke-width:18;stroke-linecap:round;fill:none}.label{fill:#fff;stroke:#9aa9b7;stroke-width:3}.line{stroke:#64748b;stroke-width:4;fill:none}
  </style>
  <text x="480" y="54" text-anchor="middle" class="h">Der Weg der Nahrung</text>
  <g transform="translate(470 92)">
    <circle cx="0" cy="34" r="30" fill="#f9dcc4" stroke="#705344" stroke-width="5"/>
    <path class="tube" d="M0 64 C0 112 0 134 0 178"/>
    <path class="org" d="M-52 178 C-2 138 80 152 82 216 C72 286 -32 276 -82 232 C-102 208 -82 190 -52 178Z"/>
    <path class="tube" d="M6 250 C-86 276 -86 390 16 384 C104 380 106 286 20 286"/>
    <path d="M-110 300 C-160 330 -152 412 -86 436 C-20 460 102 452 136 392 C168 336 130 282 78 272" fill="none" stroke="#b45309" stroke-width="18" stroke-linecap="round"/>
  </g>
  <g>
    <rect class="label" x="94" y="118" width="165" height="44" rx="12"/><text x="176" y="148" text-anchor="middle" class="l">Mund</text><path class="line" d="M259 140 C334 128 394 127 452 126"/>
    <rect class="label" x="666" y="150" width="190" height="44" rx="12"/><text x="761" y="180" text-anchor="middle" class="l">Speiseröhre</text><path class="line" d="M666 172 C590 172 522 184 474 226"/>
    <rect class="label" x="92" y="268" width="165" height="44" rx="12"/><text x="175" y="298" text-anchor="middle" class="l">Magen</text><path class="line" d="M257 290 C338 284 382 279 420 292"/>
    <rect class="label" x="666" y="298" width="170" height="44" rx="12"/><text x="751" y="328" text-anchor="middle" class="l">Dünndarm</text><path class="line" d="M666 320 C594 326 538 358 492 430"/>
    <rect class="label" x="106" y="410" width="170" height="44" rx="12"/><text x="191" y="440" text-anchor="middle" class="l">Dickdarm</text><path class="line" d="M276 432 C350 450 398 462 455 450"/>
  </g>
</svg>
